<mxfile host="app.diagrams.net" modified="2024-02-07T16:30:19.537Z" agent="Mozilla/5.0 (Windows NT 10.0; Win64; x64) AppleWebKit/537.36 (KHTML, like Gecko) Chrome/121.0.0.0 Safari/537.36" etag="gykMoctSOvcWlnNxzYZ_" version="23.1.1" type="device">
  <diagram name="Page-1" id="gQAPA94I2LRTRZRvNk6_">
    <mxGraphModel dx="1593" dy="867" grid="1" gridSize="10" guides="1" tooltips="1" connect="1" arrows="1" fold="1" page="1" pageScale="1" pageWidth="827" pageHeight="1169" math="0" shadow="0">
      <root>
        <mxCell id="0" />
        <mxCell id="1" parent="0" />
        <mxCell id="kbCp4oyy5E4g1tFFCUHs-2" value="" style="swimlane;startSize=0;" vertex="1" parent="1">
          <mxGeometry x="130" y="60" width="680" height="640" as="geometry" />
        </mxCell>
        <mxCell id="kbCp4oyy5E4g1tFFCUHs-5" value="Création compte" style="ellipse;whiteSpace=wrap;html=1;" vertex="1" parent="kbCp4oyy5E4g1tFFCUHs-2">
          <mxGeometry x="90" y="20" width="120" height="80" as="geometry" />
        </mxCell>
        <mxCell id="kbCp4oyy5E4g1tFFCUHs-7" value="&amp;lt;&amp;lt;includes&amp;gt;&amp;gt;&amp;nbsp;" style="text;html=1;align=center;verticalAlign=middle;resizable=0;points=[];autosize=1;strokeColor=none;fillColor=none;" vertex="1" parent="kbCp4oyy5E4g1tFFCUHs-2">
          <mxGeometry x="-10" y="75" width="100" height="30" as="geometry" />
        </mxCell>
        <mxCell id="kbCp4oyy5E4g1tFFCUHs-16" value="&amp;lt;&amp;lt;includes&amp;gt;&amp;gt;&amp;nbsp;" style="text;html=1;align=center;verticalAlign=middle;resizable=0;points=[];autosize=1;strokeColor=none;fillColor=none;" vertex="1" parent="kbCp4oyy5E4g1tFFCUHs-2">
          <mxGeometry x="60" y="275" width="100" height="30" as="geometry" />
        </mxCell>
        <mxCell id="kbCp4oyy5E4g1tFFCUHs-24" value="&amp;lt;&amp;lt;includes&amp;gt;&amp;gt;&amp;nbsp;" style="text;html=1;align=center;verticalAlign=middle;resizable=0;points=[];autosize=1;strokeColor=none;fillColor=none;" vertex="1" parent="kbCp4oyy5E4g1tFFCUHs-2">
          <mxGeometry x="370" y="570" width="100" height="30" as="geometry" />
        </mxCell>
        <mxCell id="kbCp4oyy5E4g1tFFCUHs-21" value="&amp;lt;&amp;lt;includes&amp;gt;&amp;gt;&amp;nbsp;" style="text;html=1;align=center;verticalAlign=middle;resizable=0;points=[];autosize=1;strokeColor=none;fillColor=none;" vertex="1" parent="kbCp4oyy5E4g1tFFCUHs-2">
          <mxGeometry x="60" y="130" width="100" height="30" as="geometry" />
        </mxCell>
        <mxCell id="kbCp4oyy5E4g1tFFCUHs-13" value="&amp;lt;&amp;lt;includes&amp;gt;&amp;gt;" style="text;html=1;align=center;verticalAlign=middle;resizable=0;points=[];autosize=1;strokeColor=none;fillColor=none;" vertex="1" parent="kbCp4oyy5E4g1tFFCUHs-2">
          <mxGeometry x="500" y="180" width="100" height="30" as="geometry" />
        </mxCell>
        <mxCell id="kbCp4oyy5E4g1tFFCUHs-41" value="&amp;lt;&amp;lt;includes&amp;gt;&amp;gt;" style="text;html=1;align=center;verticalAlign=middle;resizable=0;points=[];autosize=1;strokeColor=none;fillColor=none;" vertex="1" parent="kbCp4oyy5E4g1tFFCUHs-2">
          <mxGeometry x="550" y="370" width="100" height="30" as="geometry" />
        </mxCell>
        <mxCell id="kbCp4oyy5E4g1tFFCUHs-9" value="Publication projet" style="ellipse;whiteSpace=wrap;html=1;" vertex="1" parent="kbCp4oyy5E4g1tFFCUHs-2">
          <mxGeometry x="440" y="80" width="120" height="80" as="geometry" />
        </mxCell>
        <mxCell id="kbCp4oyy5E4g1tFFCUHs-10" value="&amp;lt;&amp;lt;extends&amp;gt;&amp;gt;" style="text;html=1;align=center;verticalAlign=middle;resizable=0;points=[];autosize=1;strokeColor=none;fillColor=none;" vertex="1" parent="kbCp4oyy5E4g1tFFCUHs-2">
          <mxGeometry x="290" y="160" width="90" height="30" as="geometry" />
        </mxCell>
        <mxCell id="kbCp4oyy5E4g1tFFCUHs-36" value="&amp;lt;&amp;lt;extends&amp;gt;&amp;gt;" style="text;html=1;align=center;verticalAlign=middle;resizable=0;points=[];autosize=1;strokeColor=none;fillColor=none;" vertex="1" parent="kbCp4oyy5E4g1tFFCUHs-2">
          <mxGeometry x="210" y="30" width="90" height="30" as="geometry" />
        </mxCell>
        <mxCell id="kbCp4oyy5E4g1tFFCUHs-28" value="&amp;lt;&amp;lt;includes&amp;gt;&amp;gt;" style="text;html=1;align=center;verticalAlign=middle;resizable=0;points=[];autosize=1;strokeColor=none;fillColor=none;" vertex="1" parent="kbCp4oyy5E4g1tFFCUHs-2">
          <mxGeometry x="280" y="390" width="100" height="30" as="geometry" />
        </mxCell>
        <mxCell id="kbCp4oyy5E4g1tFFCUHs-11" value="Gestion projet" style="ellipse;whiteSpace=wrap;html=1;" vertex="1" parent="kbCp4oyy5E4g1tFFCUHs-2">
          <mxGeometry x="450" y="260" width="120" height="80" as="geometry" />
        </mxCell>
        <mxCell id="kbCp4oyy5E4g1tFFCUHs-12" value="" style="endArrow=classic;html=1;rounded=0;exitX=0.592;exitY=0.975;exitDx=0;exitDy=0;entryX=0.5;entryY=0;entryDx=0;entryDy=0;exitPerimeter=0;" edge="1" parent="kbCp4oyy5E4g1tFFCUHs-2" source="kbCp4oyy5E4g1tFFCUHs-9" target="kbCp4oyy5E4g1tFFCUHs-11">
          <mxGeometry width="50" height="50" relative="1" as="geometry">
            <mxPoint x="-210" y="190" as="sourcePoint" />
            <mxPoint x="-160" y="140" as="targetPoint" />
          </mxGeometry>
        </mxCell>
        <mxCell id="kbCp4oyy5E4g1tFFCUHs-15" value="Se connecter" style="ellipse;whiteSpace=wrap;html=1;" vertex="1" parent="kbCp4oyy5E4g1tFFCUHs-2">
          <mxGeometry x="90" y="175" width="120" height="80" as="geometry" />
        </mxCell>
        <mxCell id="kbCp4oyy5E4g1tFFCUHs-19" value="Se déconnecter" style="ellipse;whiteSpace=wrap;html=1;" vertex="1" parent="kbCp4oyy5E4g1tFFCUHs-2">
          <mxGeometry x="90" y="320" width="120" height="80" as="geometry" />
        </mxCell>
        <mxCell id="kbCp4oyy5E4g1tFFCUHs-20" value="" style="endArrow=none;dashed=1;html=1;dashPattern=1 3;strokeWidth=2;rounded=0;entryX=0.5;entryY=1;entryDx=0;entryDy=0;exitX=0.5;exitY=0;exitDx=0;exitDy=0;" edge="1" parent="kbCp4oyy5E4g1tFFCUHs-2" source="kbCp4oyy5E4g1tFFCUHs-19" target="kbCp4oyy5E4g1tFFCUHs-15">
          <mxGeometry width="50" height="50" relative="1" as="geometry">
            <mxPoint x="-217" y="460" as="sourcePoint" />
            <mxPoint x="-167" y="410" as="targetPoint" />
          </mxGeometry>
        </mxCell>
        <mxCell id="kbCp4oyy5E4g1tFFCUHs-22" value="Consulter projet&lt;br&gt;d&#39;utilisateur" style="ellipse;whiteSpace=wrap;html=1;" vertex="1" parent="kbCp4oyy5E4g1tFFCUHs-2">
          <mxGeometry x="350" y="470" width="120" height="80" as="geometry" />
        </mxCell>
        <mxCell id="kbCp4oyy5E4g1tFFCUHs-25" value="Gestion tâches" style="ellipse;whiteSpace=wrap;html=1;" vertex="1" parent="kbCp4oyy5E4g1tFFCUHs-2">
          <mxGeometry x="20" y="440" width="120" height="80" as="geometry" />
        </mxCell>
        <mxCell id="kbCp4oyy5E4g1tFFCUHs-27" value="" style="endArrow=none;dashed=1;html=1;dashPattern=1 3;strokeWidth=2;rounded=0;entryX=0;entryY=0.5;entryDx=0;entryDy=0;exitX=1;exitY=0.5;exitDx=0;exitDy=0;" edge="1" parent="kbCp4oyy5E4g1tFFCUHs-2" source="kbCp4oyy5E4g1tFFCUHs-25" target="kbCp4oyy5E4g1tFFCUHs-11">
          <mxGeometry width="50" height="50" relative="1" as="geometry">
            <mxPoint x="283" y="420" as="sourcePoint" />
            <mxPoint x="333" y="370" as="targetPoint" />
          </mxGeometry>
        </mxCell>
        <mxCell id="kbCp4oyy5E4g1tFFCUHs-30" value="" style="endArrow=none;dashed=1;html=1;dashPattern=1 3;strokeWidth=2;rounded=0;entryX=0.5;entryY=1;entryDx=0;entryDy=0;exitX=0.5;exitY=0;exitDx=0;exitDy=0;" edge="1" parent="kbCp4oyy5E4g1tFFCUHs-2" source="kbCp4oyy5E4g1tFFCUHs-15" target="kbCp4oyy5E4g1tFFCUHs-5">
          <mxGeometry width="50" height="50" relative="1" as="geometry">
            <mxPoint x="270" y="320" as="sourcePoint" />
            <mxPoint x="320" y="270" as="targetPoint" />
          </mxGeometry>
        </mxCell>
        <mxCell id="kbCp4oyy5E4g1tFFCUHs-33" value="" style="endArrow=none;html=1;rounded=0;entryX=0;entryY=0.5;entryDx=0;entryDy=0;" edge="1" parent="kbCp4oyy5E4g1tFFCUHs-2" source="kbCp4oyy5E4g1tFFCUHs-15" target="kbCp4oyy5E4g1tFFCUHs-9">
          <mxGeometry width="50" height="50" relative="1" as="geometry">
            <mxPoint x="-350" y="280" as="sourcePoint" />
            <mxPoint x="-300" y="230" as="targetPoint" />
          </mxGeometry>
        </mxCell>
        <mxCell id="kbCp4oyy5E4g1tFFCUHs-34" value="Renseigner informations&amp;nbsp;" style="ellipse;whiteSpace=wrap;html=1;" vertex="1" parent="kbCp4oyy5E4g1tFFCUHs-2">
          <mxGeometry x="310" y="20" width="120" height="80" as="geometry" />
        </mxCell>
        <mxCell id="kbCp4oyy5E4g1tFFCUHs-35" value="" style="endArrow=classic;html=1;rounded=0;entryX=0;entryY=0.5;entryDx=0;entryDy=0;exitX=1;exitY=0.5;exitDx=0;exitDy=0;" edge="1" parent="kbCp4oyy5E4g1tFFCUHs-2" source="kbCp4oyy5E4g1tFFCUHs-5" target="kbCp4oyy5E4g1tFFCUHs-34">
          <mxGeometry width="50" height="50" relative="1" as="geometry">
            <mxPoint x="-230" y="280" as="sourcePoint" />
            <mxPoint x="-180" y="230" as="targetPoint" />
          </mxGeometry>
        </mxCell>
        <mxCell id="kbCp4oyy5E4g1tFFCUHs-39" value="Supprimer projet" style="ellipse;whiteSpace=wrap;html=1;" vertex="1" parent="kbCp4oyy5E4g1tFFCUHs-2">
          <mxGeometry x="520" y="430" width="120" height="80" as="geometry" />
        </mxCell>
        <mxCell id="kbCp4oyy5E4g1tFFCUHs-40" value="" style="endArrow=classic;html=1;rounded=0;exitX=0.5;exitY=1;exitDx=0;exitDy=0;entryX=0.5;entryY=0;entryDx=0;entryDy=0;" edge="1" parent="kbCp4oyy5E4g1tFFCUHs-2" source="kbCp4oyy5E4g1tFFCUHs-11" target="kbCp4oyy5E4g1tFFCUHs-39">
          <mxGeometry width="50" height="50" relative="1" as="geometry">
            <mxPoint x="-70" y="200" as="sourcePoint" />
            <mxPoint x="-20" y="150" as="targetPoint" />
          </mxGeometry>
        </mxCell>
        <mxCell id="kbCp4oyy5E4g1tFFCUHs-3" value="Actor" style="shape=umlActor;verticalLabelPosition=bottom;verticalAlign=top;html=1;outlineConnect=0;" vertex="1" parent="1">
          <mxGeometry x="40" y="350" width="30" height="60" as="geometry" />
        </mxCell>
        <mxCell id="kbCp4oyy5E4g1tFFCUHs-4" value="Utilisateur" style="text;html=1;strokeColor=none;fillColor=none;align=center;verticalAlign=middle;whiteSpace=wrap;rounded=0;" vertex="1" parent="1">
          <mxGeometry x="25" y="320" width="60" height="30" as="geometry" />
        </mxCell>
        <mxCell id="kbCp4oyy5E4g1tFFCUHs-6" value="" style="endArrow=none;html=1;rounded=0;entryX=0;entryY=0.5;entryDx=0;entryDy=0;exitX=0.5;exitY=0.5;exitDx=0;exitDy=0;exitPerimeter=0;" edge="1" parent="1" source="kbCp4oyy5E4g1tFFCUHs-3" target="kbCp4oyy5E4g1tFFCUHs-5">
          <mxGeometry width="50" height="50" relative="1" as="geometry">
            <mxPoint x="10" y="540" as="sourcePoint" />
            <mxPoint x="60" y="490" as="targetPoint" />
          </mxGeometry>
        </mxCell>
        <mxCell id="kbCp4oyy5E4g1tFFCUHs-17" value="Actor" style="shape=umlActor;verticalLabelPosition=bottom;verticalAlign=top;html=1;outlineConnect=0;" vertex="1" parent="1">
          <mxGeometry x="425" y="740" width="30" height="60" as="geometry" />
        </mxCell>
        <mxCell id="kbCp4oyy5E4g1tFFCUHs-18" value="Visiteur" style="text;html=1;strokeColor=none;fillColor=none;align=center;verticalAlign=middle;whiteSpace=wrap;rounded=0;" vertex="1" parent="1">
          <mxGeometry x="410" y="710" width="60" height="30" as="geometry" />
        </mxCell>
        <mxCell id="kbCp4oyy5E4g1tFFCUHs-23" value="" style="endArrow=none;html=1;rounded=0;entryX=0.5;entryY=1;entryDx=0;entryDy=0;exitX=0.5;exitY=0.5;exitDx=0;exitDy=0;exitPerimeter=0;" edge="1" parent="1" source="kbCp4oyy5E4g1tFFCUHs-17" target="kbCp4oyy5E4g1tFFCUHs-22">
          <mxGeometry width="50" height="50" relative="1" as="geometry">
            <mxPoint x="-70" y="640" as="sourcePoint" />
            <mxPoint x="-20" y="590" as="targetPoint" />
          </mxGeometry>
        </mxCell>
        <mxCell id="kbCp4oyy5E4g1tFFCUHs-26" value="" style="endArrow=none;html=1;rounded=0;entryX=0;entryY=0.5;entryDx=0;entryDy=0;exitX=0.5;exitY=0.5;exitDx=0;exitDy=0;exitPerimeter=0;" edge="1" parent="1" source="kbCp4oyy5E4g1tFFCUHs-3" target="kbCp4oyy5E4g1tFFCUHs-25">
          <mxGeometry width="50" height="50" relative="1" as="geometry">
            <mxPoint x="-90" y="510" as="sourcePoint" />
            <mxPoint x="-40" y="460" as="targetPoint" />
          </mxGeometry>
        </mxCell>
        <mxCell id="kbCp4oyy5E4g1tFFCUHs-37" value="Application web de gestion de projets" style="text;html=1;strokeColor=none;fillColor=none;align=center;verticalAlign=middle;whiteSpace=wrap;rounded=0;" vertex="1" parent="1">
          <mxGeometry x="330" y="20" width="220" height="30" as="geometry" />
        </mxCell>
      </root>
    </mxGraphModel>
  </diagram>
</mxfile>
